<svg xmlns="http://www.w3.org/2000/svg" xml:space="preserve" fill-rule="evenodd" stroke-linejoin="round" stroke-miterlimit="2" clip-rule="evenodd" viewBox="0 0 597 157">
  <path fill-rule="nonzero" d="M206.865 34.374h8.938l13.247 38.969 13.183-38.97h8.81v46.108h-5.917V53.28c0-.965 0-2.508.065-4.695.064-2.186.064-4.501.064-7.009l-13.183 38.905H225.9l-13.247-38.905v1.415c0 1.157 0 2.83.065 5.144.064 2.315.128 4.051.128 5.145v27.2h-5.98V34.375Z"/>
  <path fill-rule="nonzero" d="M253.808 34.374h7.266l13.247 22.12 13.247-22.12h7.33l-17.426 27.522v18.585h-6.238V61.896l-17.426-27.522Z"/>
  <path fill-rule="nonzero" d="M329.548 75.734c-3.472 3.15-7.845 4.758-13.247 4.758-6.687 0-11.896-2.122-15.69-6.43-3.794-4.244-5.723-10.16-5.723-17.62 0-8.102 2.186-14.276 6.495-18.713 3.794-3.794 8.552-5.658 14.404-5.658 7.78 0 13.44 2.507 17.04 7.652 1.994 2.83 3.087 5.723 3.216 8.617h-9.646c-.643-2.187-1.479-3.923-2.443-5.016-1.737-1.994-4.373-3.022-7.846-3.022-3.472 0-6.237 1.414-8.295 4.244-1.993 2.83-3.022 6.88-3.022 12.025 0 5.208 1.029 9.131 3.215 11.703 2.122 2.573 4.887 3.859 8.167 3.859 3.408 0 5.98-1.094 7.78-3.344.965-1.158 1.801-2.958 2.444-5.338h9.582c-.836 5.016-3.023 9.132-6.43 12.283Z"/>
  <path fill-rule="nonzero" d="M360.618 80.492c-6.623 0-11.703-1.8-15.176-5.401-4.694-4.437-7.073-10.804-7.073-19.099 0-8.488 2.379-14.854 7.073-19.099 3.473-3.6 8.553-5.401 15.176-5.401 6.56 0 11.64 1.8 15.112 5.401 4.694 4.245 7.01 10.61 7.01 19.099 0 8.295-2.316 14.662-7.01 19.099-3.472 3.6-8.553 5.401-15.112 5.401Zm9.132-12.41c2.186-2.83 3.343-6.881 3.343-12.09s-1.157-9.196-3.408-12.025c-2.25-2.83-5.273-4.244-9.067-4.244-3.858 0-6.945 1.415-9.195 4.244-2.315 2.83-3.408 6.816-3.408 12.025 0 5.209 1.093 9.26 3.408 12.09 2.25 2.829 5.337 4.244 9.195 4.244 3.794 0 6.817-1.415 9.132-4.245Z"/>
  <path fill-rule="nonzero" d="M395.782 79.206h-9.002v-46.3h14.018l8.424 36.397 8.36-36.396h13.954v46.3h-9.067V47.89c0-.9.064-2.122.064-3.794v-3.73l-8.745 38.84h-9.389l-8.68-38.84v3.73c.063 1.672.063 2.893.063 3.794v31.316Z"/>
  <path fill-rule="nonzero" d="M456.937 62.551h-9.84v16.655h-9.58v-46.3h20.127c4.63 0 8.36 1.222 11.125 3.602 2.765 2.379 4.115 6.109 4.115 11.06 0 5.466-1.35 9.324-4.115 11.575-2.765 2.315-6.688 3.408-11.832 3.408Zm4.5-9.646c1.287-1.093 1.866-2.829 1.866-5.273 0-2.379-.579-4.115-1.865-5.144s-3.022-1.543-5.337-1.543h-9.003v13.632h9.003c2.315 0 4.05-.514 5.337-1.672Z"/>
  <path fill-rule="nonzero" d="M499.57 69.689h-17.104l-3.151 9.517h-10.16l16.526-46.3h10.932l16.398 46.3h-10.482l-2.958-9.517Zm-2.7-7.974-5.787-18.198-5.98 18.198h11.767Z"/>
  <path fill-rule="nonzero" d="M553.083 79.206h-9.645l-18.906-32.86v32.86h-9.003v-46.3h10.096l18.456 32.346V32.907h9.002v46.3Z"/>
  <path fill-rule="nonzero" d="M596.243 32.907 580.81 61.779v17.427h-9.71V61.78l-16.013-28.872h11.382l9.646 20.191 9.196-20.191h10.932Z"/>
  <path fill-rule="nonzero" d="M209.51 93.521c.073-1.325.294-2.32.699-2.946.773-1.104 2.246-1.656 4.382-1.656.22 0 .405.036.626.036.22 0 .478.037.736.037v2.946c-.331 0-.552-.037-.736-.037h-.405c-.995 0-1.584.258-1.768.773-.184.516-.294 1.804-.294 3.866h3.203v2.578h-3.24v16.606h-3.204V99.118h-2.65V96.54h2.65v-3.019Z"/>
  <path fill-rule="nonzero" d="M217.199 96.467h3.056v3.314c.258-.626.883-1.436 1.878-2.357.957-.92 2.098-1.4 3.387-1.4.074 0 .147 0 .295.038.147 0 .405.037.736.073v3.425a2.888 2.888 0 0 0-.515-.074c-.185-.037-.332-.037-.553-.037-1.62 0-2.872.516-3.755 1.583a5.554 5.554 0 0 0-1.29 3.609v11.083h-3.24V96.467Z"/>
  <path fill-rule="nonzero" d="M235.535 96.025c1.363 0 2.688.331 3.977.957 1.288.663 2.246 1.473 2.945 2.504.626.957 1.068 2.099 1.29 3.387.183.884.294 2.32.294 4.272H229.9c.074 1.951.553 3.498 1.4 4.676.847 1.178 2.21 1.767 4.013 1.767 1.694 0 3.02-.552 4.05-1.657.553-.663.958-1.399 1.216-2.246h3.166c-.074.7-.331 1.51-.81 2.357a8.337 8.337 0 0 1-1.62 2.135c-.957.958-2.172 1.62-3.645 1.952-.773.184-1.657.294-2.614.294-2.43 0-4.456-.883-6.113-2.614-1.657-1.767-2.503-4.197-2.503-7.327 0-3.093.846-5.634 2.54-7.548 1.657-1.915 3.866-2.91 6.554-2.91Zm5.155 8.542c-.11-1.399-.442-2.54-.92-3.387-.884-1.547-2.357-2.32-4.419-2.32-1.51 0-2.725.552-3.756 1.62-.994 1.068-1.546 2.43-1.583 4.087h10.678Z"/>
  <path fill-rule="nonzero" d="M254.172 96.025c1.363 0 2.688.331 3.977.957 1.289.663 2.246 1.473 2.946 2.504.626.957 1.067 2.099 1.288 3.387.184.884.295 2.32.295 4.272h-14.14c.074 1.951.553 3.498 1.4 4.676.847 1.178 2.21 1.767 4.013 1.767 1.694 0 3.02-.552 4.05-1.657.553-.663.958-1.399 1.216-2.246h3.166c-.073.7-.331 1.51-.81 2.357a8.337 8.337 0 0 1-1.62 2.135c-.957.958-2.172 1.62-3.645 1.952-.773.184-1.657.294-2.614.294-2.43 0-4.456-.883-6.112-2.614-1.657-1.767-2.504-4.197-2.504-7.327 0-3.093.847-5.634 2.54-7.548 1.657-1.915 3.866-2.91 6.554-2.91Zm5.155 8.542c-.11-1.399-.442-2.54-.92-3.387-.884-1.547-2.357-2.32-4.419-2.32-1.51 0-2.724.552-3.755 1.62-.995 1.068-1.547 2.43-1.584 4.087h10.678Z"/>
  <path fill-rule="nonzero" d="M264.893 89.324h3.24v26.4h-3.24z"/>
  <path fill-rule="nonzero" d="M278.78 113.625c2.136 0 3.609-.81 4.419-2.43.773-1.62 1.178-3.424 1.178-5.413 0-1.804-.258-3.277-.847-4.381-.92-1.768-2.503-2.651-4.713-2.651-1.988 0-3.424.736-4.308 2.246-.92 1.51-1.362 3.35-1.362 5.486 0 2.025.442 3.756 1.362 5.118.884 1.362 2.32 2.025 4.272 2.025Zm.111-17.71c2.504 0 4.603.81 6.296 2.466 1.73 1.657 2.578 4.087 2.578 7.328 0 3.093-.737 5.67-2.246 7.695-1.51 2.025-3.866 3.02-7.033 3.02-2.651 0-4.75-.884-6.333-2.689-1.547-1.804-2.32-4.197-2.32-7.216 0-3.24.81-5.818 2.467-7.733 1.62-1.914 3.83-2.872 6.591-2.872Z"/>
  <path fill-rule="nonzero" d="M296.57 96.135c1.51 0 2.836.369 3.94 1.105.627.405 1.253 1.03 1.878 1.841v-2.43h2.983v17.526c0 2.43-.331 4.345-1.068 5.781-1.325 2.614-3.866 3.903-7.622 3.903-2.062 0-3.792-.442-5.228-1.4-1.4-.92-2.21-2.356-2.357-4.344h3.277c.148.847.479 1.51.958 1.988.736.737 1.878 1.068 3.424 1.068 2.504 0 4.124-.847 4.897-2.614.442-1.031.663-2.872.626-5.523-.663.994-1.436 1.73-2.356 2.21-.884.478-2.1.699-3.609.699-2.062 0-3.903-.737-5.45-2.21-1.583-1.472-2.356-3.94-2.356-7.327 0-3.24.773-5.744 2.357-7.548 1.583-1.841 3.46-2.725 5.707-2.725Zm5.818 9.868c0-2.356-.478-4.124-1.472-5.302-.994-1.141-2.246-1.73-3.756-1.73-2.283 0-3.83 1.067-4.676 3.203-.442 1.141-.663 2.65-.663 4.492 0 2.172.442 3.83 1.326 4.934.883 1.141 2.062 1.73 3.534 1.73 2.357 0 3.977-1.067 4.934-3.166.516-1.178.773-2.578.773-4.16Z"/>
  <path fill-rule="nonzero" d="M316.052 113.625c2.135 0 3.608-.81 4.418-2.43.773-1.62 1.179-3.424 1.179-5.413 0-1.804-.258-3.277-.847-4.381-.92-1.768-2.504-2.651-4.713-2.651-1.989 0-3.425.736-4.308 2.246-.92 1.51-1.363 3.35-1.363 5.486 0 2.025.442 3.756 1.363 5.118.883 1.362 2.32 2.025 4.27 2.025Zm.11-17.71c2.504 0 4.603.81 6.297 2.466 1.73 1.657 2.577 4.087 2.577 7.328 0 3.093-.736 5.67-2.246 7.695-1.51 2.025-3.866 3.02-7.033 3.02-2.65 0-4.75-.884-6.333-2.689-1.546-1.804-2.32-4.197-2.32-7.216 0-3.24.81-5.818 2.467-7.733 1.62-1.914 3.83-2.872 6.591-2.872Z"/>
  <path fill-rule="nonzero" d="M327.804 111.82h3.755v3.904h-3.755z"/>
  <path fill-rule="nonzero" d="M335.42 96.467h3.203v2.724c.773-.92 1.472-1.62 2.098-2.061 1.068-.737 2.283-1.105 3.646-1.105 1.51 0 2.761.405 3.682 1.141.552.442 1.03 1.068 1.436 1.915.736-1.031 1.583-1.804 2.54-2.283.994-.515 2.062-.773 3.277-.773 2.578 0 4.345.957 5.302 2.835.479.994.737 2.357.737 4.05v12.814h-3.35v-13.366c0-1.289-.332-2.172-.958-2.651-.663-.479-1.436-.736-2.357-.736-1.288 0-2.356.441-3.277 1.288-.92.847-1.399 2.283-1.399 4.271v11.194h-3.277v-12.556c0-1.326-.147-2.283-.479-2.872-.478-.884-1.399-1.362-2.724-1.362-1.252 0-2.357.478-3.35 1.436-.995.957-1.51 2.65-1.51 5.155v10.199h-3.24V96.467Z"/>
  <path fill-rule="nonzero" d="M372.276 96.025c1.363 0 2.688.331 3.977.957 1.289.663 2.246 1.473 2.946 2.504.626.957 1.067 2.099 1.288 3.387.184.884.295 2.32.295 4.272h-14.14c.074 1.951.553 3.498 1.4 4.676.847 1.178 2.21 1.767 4.013 1.767 1.694 0 3.02-.552 4.05-1.657.553-.663.958-1.399 1.216-2.246h3.166c-.073.7-.331 1.51-.81 2.357a8.337 8.337 0 0 1-1.62 2.135c-.957.958-2.172 1.62-3.645 1.952-.773.184-1.657.294-2.614.294-2.43 0-4.456-.883-6.112-2.614-1.657-1.767-2.504-4.197-2.504-7.327 0-3.093.847-5.634 2.54-7.548 1.657-1.915 3.866-2.91 6.554-2.91Zm5.155 8.542c-.11-1.399-.442-2.54-.92-3.387-.884-1.547-2.357-2.32-4.419-2.32-1.51 0-2.724.552-3.755 1.62-.995 1.068-1.547 2.43-1.584 4.087h10.678Z"/>
  <path d="M156.9 71.41c.04-1.36.08-2.75.09-4.16l.01-1.13v-1.13c0-2.01-.02-3.96-.08-5.86.03-1.13.06-2.28.07-3.45l.01-.93v-.94c0-1.66-.02-3.28-.07-4.85.03-.93.06-1.89.07-2.86v-1.54c0-1.38-.02-2.72-.06-4.02.03-.77.05-1.56.06-2.37v-1.28c0-1.14-.01-2.25-.05-3.33.03-.63.04-1.29.05-1.96v-1.05c0-.95-.01-1.87-.04-2.76.02-.53.03-1.07.04-1.62v-.88c0-.78-.01-1.54-.03-2.28.02-.44.03-.89.03-1.34v-.73c0-7.83-1.38-13.03-4.65-16.3-3.26-3.26-8.46-4.65-16.3-4.65-.71 0-1.39.01-2.06.03a84.633 84.633 0 0 0-4.79.01c-.89-.03-1.81-.04-2.75-.04-1.04 0-2.04.02-3.02.05-1.08-.03-2.19-.05-3.33-.05-1.25 0-2.46.02-3.64.06-1.3-.04-2.64-.06-4.02-.06-1.51 0-2.98.02-4.4.07-1.57-.05-3.19-.07-4.86-.07-1.82 0-3.6.03-5.31.09A190.73 190.73 0 0 0 85.58.1c-2.29-.07-4.65-.11-7.08-.11-29.35 0-48.83 5.2-61.06 17.43C5.21 29.65 0 49.14 0 78.49c0 29.36 5.21 48.84 17.44 61.07 12.23 12.229 31.71 17.429 61.06 17.429 29.36 0 48.84-5.2 61.07-17.43 11.85-11.85 17.1-30.5 17.42-58.35l.01-1.35v-1.37c0-2.43-.03-4.79-.1-7.08ZM46.93 9.89c-10.4 2.4-18.47 6.41-24.54 12.48C11.18 33.58 7 51.59 7 78.49s4.18 44.91 15.39 56.12c11.2 11.21 29.22 15.379 56.11 15.379 26.9 0 44.92-4.17 56.12-15.38 6.08-6.07 10.08-14.15 12.48-24.55-1.36 2-2.86 3.83-4.53 5.5-10.13 10.12-26.26 14.43-50.57 14.43-24.3 0-40.43-4.31-50.56-14.43C31.31 105.43 27 89.3 27 64.99s4.31-40.44 14.44-50.57c1.66-1.66 3.49-3.17 5.49-4.53Zm18.93-1.7c-8.61 1.99-15.3 5.3-20.32 10.33-9.28 9.28-12.74 24.2-12.74 46.47s3.46 37.19 12.74 46.47c9.28 9.28 24.19 12.73 46.46 12.73s37.19-3.45 46.47-12.73c5.03-5.03 8.35-11.71 10.33-20.33a30.668 30.668 0 0 1-3.75 4.55c-8.38 8.39-21.74 11.95-41.87 11.95-20.12 0-33.48-3.56-41.87-11.95-8.38-8.38-11.95-21.74-11.95-41.87s3.57-33.48 11.95-41.87c1.38-1.38 2.89-2.63 4.55-3.75ZM80.62 7c-6.69 1.66-11.93 4.35-15.91 8.34-7.69 7.68-10.55 20.03-10.55 38.47 0 18.44 2.86 30.79 10.55 38.48 7.68 7.68 20.03 10.54 38.47 10.54 18.44 0 30.8-2.86 38.48-10.54 3.98-3.98 6.67-9.22 8.34-15.91l-.01-.39v-.2c-.87 1.24-1.83 2.39-2.88 3.43-6.94 6.95-18.01 9.9-34.67 9.9-16.67 0-27.73-2.95-34.67-9.9-6.95-6.94-9.9-18-9.9-34.66 0-16.67 2.95-27.73 9.9-34.67 1.05-1.05 2.19-2.01 3.44-2.88L81 7h-.38Zm8.55.24c-3.42 1.34-6.26 3.13-8.59 5.46-6.36 6.36-8.73 16.59-8.73 31.86s2.37 25.49 8.73 31.86c6.36 6.36 16.59 8.73 31.86 8.73s25.5-2.37 31.86-8.73c2.33-2.33 4.12-5.18 5.46-8.59-.05-1.03-.11-2.04-.18-3.04-.25.27-.51.55-.77.81-5.75 5.75-14.91 8.19-28.71 8.19s-22.95-2.44-28.7-8.19-8.2-14.91-8.2-28.71 2.45-22.96 8.2-28.71c.26-.26.53-.52.81-.76-1-.07-2.01-.13-3.04-.18Zm7.96.59c-1.26.77-2.39 1.67-3.41 2.68-5.27 5.27-7.23 13.74-7.23 26.38 0 12.65 1.96 21.11 7.23 26.38 5.27 5.27 13.74 7.23 26.38 7.23 12.65 0 21.12-1.96 26.38-7.23 1.02-1.01 1.91-2.15 2.69-3.4-.15-1.43-.31-2.82-.49-4.19-4.8 3.79-11.97 5.42-22.23 5.42-11.43 0-19.01-2.02-23.77-6.78-4.76-4.76-6.79-12.35-6.79-23.77 0-10.27 1.64-17.43 5.42-22.23-1.36-.19-2.76-.35-4.18-.49Zm7.38.97c-4.29 4.37-5.89 11.35-5.89 21.75 0 10.46 1.62 17.48 5.99 21.84 4.36 4.36 11.37 5.99 21.84 5.99 10.39 0 17.38-1.61 21.75-5.9-.27-1.58-.56-3.12-.89-4.62-3.81 1.89-8.91 2.73-15.61 2.73-9.46 0-15.74-1.67-19.68-5.62-3.94-3.94-5.62-10.22-5.62-19.68 0-6.7.84-11.8 2.73-15.61-1.49-.33-3.03-.62-4.62-.88Zm6.88 1.41c-1.96 3.57-2.73 8.5-2.73 15.08 0 8.67 1.35 14.48 4.96 18.09 3.61 3.61 9.41 4.96 18.08 4.96 6.58 0 11.51-.78 15.09-2.73-.41-1.63-.85-3.19-1.34-4.7-2.59.67-5.7.98-9.4.98-7.83 0-13.03-1.39-16.29-4.65-3.27-3.27-4.65-8.47-4.65-16.3 0-3.69.3-6.8.97-9.4-1.51-.49-3.07-.93-4.69-1.33Zm6.45 1.93c-.61 2.42-.87 5.33-.87 8.8 0 7.18 1.12 11.99 4.11 14.98s7.8 4.1 14.97 4.1c3.47 0 6.38-.26 8.81-.86-2.42-6.77-5.77-12.32-10.24-16.79-4.46-4.47-10.01-7.82-16.78-10.23Z"/>
</svg>
